<?xml version="1.0" standalone="no"?>
<!DOCTYPE svg PUBLIC "-//W3C//DTD SVG 20010904//EN"
 "http://www.w3.org/TR/2001/REC-SVG-20010904/DTD/svg10.dtd">
<svg version="1.0" xmlns="http://www.w3.org/2000/svg"
 width="1823.000000pt" height="1823.000000pt" viewBox="0 0 1823.000000 1823.000000"
 preserveAspectRatio="xMidYMid meet">
<metadata>
Created by potrace 1.11, written by Peter Selinger 2001-2013
</metadata>
<g transform="translate(0.000000,1823.000000) scale(0.100000,-0.100000)"
fill="#000000" stroke="none">
<path d="M1849 18053 c0 -98 -2 -268 -4 -378 -5 -375 -16 -1090 -20 -1365 -2
-151 -7 -462 -10 -690 -3 -228 -8 -550 -10 -715 -2 -165 -7 -460 -10 -655 -3
-195 -7 -515 -10 -710 -3 -195 -7 -510 -10 -700 -3 -190 -7 -493 -10 -675 -2
-181 -7 -487 -10 -680 -5 -370 -11 -797 -20 -1415 -14 -1022 -22 -1580 -30
-2075 -3 -181 -7 -494 -10 -695 -13 -879 -15 -1074 -20 -1385 -3 -181 -7 -499
-10 -705 -3 -206 -7 -514 -10 -685 -2 -170 -7 -490 -10 -710 -12 -822 -14
-979 -20 -1347 l-5 -377 53 -39 c28 -21 104 -76 167 -121 63 -46 126 -91 140
-101 36 -26 350 -252 470 -338 25 -17 50 -35 55 -40 6 -4 33 -23 60 -42 28
-19 52 -38 55 -41 3 -3 28 -20 55 -39 28 -19 52 -36 55 -40 3 -3 43 -33 90
-65 47 -32 87 -61 90 -65 3 -3 34 -25 70 -49 36 -25 67 -47 70 -50 3 -4 21
-17 40 -31 187 -132 386 -276 388 -282 2 -5 10 -8 17 -8 7 0 15 -4 17 -8 2 -6
81 -65 178 -132 12 -8 72 -51 133 -96 312 -226 406 -294 452 -326 131 -92 206
-148 199 -148 -4 0 -4 -4 2 -10 6 -6 40 2 94 21 47 16 164 56 260 89 96 32
249 85 340 116 91 31 172 57 180 59 8 2 29 9 45 15 17 7 136 48 265 91 129 44
244 84 255 89 11 5 36 13 55 19 35 9 352 116 380 128 8 3 17 7 20 8 45 13 166
54 460 155 195 67 393 134 440 150 47 16 177 60 290 99 113 38 351 119 530
180 179 60 458 156 620 211 162 56 300 103 305 104 6 2 17 6 25 9 8 3 105 36
215 73 222 75 292 99 905 307 234 80 488 166 565 192 77 26 149 51 160 55 11
5 94 33 185 64 193 64 924 313 1155 393 88 30 180 61 205 68 25 7 62 20 82 29
21 9 41 17 45 17 5 1 13 3 18 5 6 2 111 37 235 79 124 42 230 77 235 79 6 2
15 5 20 6 6 2 57 20 115 40 58 21 182 63 275 94 94 31 179 60 190 65 11 5 137
49 280 97 143 48 343 115 445 150 102 34 392 133 645 220 253 86 492 167 530
180 39 13 237 80 440 149 204 70 425 145 493 168 l123 41 -6 475 c-3 262 -7
643 -10 846 -6 496 -15 1212 -20 1695 -3 217 -7 559 -10 760 -4 344 -12 975
-20 1655 -2 165 -4 398 -5 518 -1 119 -5 219 -9 221 -3 2 -23 -2 -45 -9 -22
-8 -111 -16 -215 -20 -97 -3 -223 -8 -281 -10 -58 -2 -184 -7 -280 -10 -96 -3
-224 -8 -285 -10 -60 -3 -186 -7 -280 -10 -93 -3 -219 -8 -280 -10 -60 -2
-189 -6 -285 -10 -96 -3 -227 -8 -290 -10 -63 -3 -185 -7 -270 -10 -148 -5
-247 -8 -570 -20 -80 -3 -210 -7 -290 -10 -80 -3 -201 -7 -270 -10 -69 -3
-199 -7 -290 -10 -91 -3 -217 -7 -280 -10 -63 -2 -196 -7 -295 -10 -99 -4
-225 -8 -280 -10 -55 -2 -174 -7 -265 -10 -91 -3 -219 -8 -285 -10 -280 -11
-507 -18 -610 -19 l-110 -1 -2 1530 c-1 842 -2 2364 -2 3383 -1 1755 -2 1853
-18 1858 -10 3 -40 16 -68 29 -58 28 -2106 1045 -2479 1231 l-249 124 -2898 0
-2899 0 -1 -177z"/>
</g>
</svg>
